0
SECTION
2
HEADER
9
$INSUNITS
70
4
9
$ACADVER
1
AC1014
9
$HANDSEED
5
FFFF
0
ENDSEC
0
SECTION
2
TABLES
0
TABLE
2
VPORT
5
8
100
AcDbSymbolTable
0
ENDTAB
0
TABLE
2
LTYPE
5
5
100
AcDbSymbolTable
0
LTYPE
5
14
100
AcDbSymbolTableRecord
100
AcDbLinetypeTableRecord
2
BYBLOCK
70
0
0
LTYPE
5
15
100
AcDbSymbolTableRecord
100
AcDbLinetypeTableRecord
2
BYLAYER
70
0
0
ENDTAB
0
TABLE
2
LAYER
5
2
100
AcDbSymbolTable
70
2
0
LAYER
5
50
100
AcDbSymbolTableRecord
100
AcDbLayerTableRecord
2
0
70
0
6
CONTINUOUS
0
ENDTAB
0
TABLE
2
STYLE
5
3
100
AcDbSymbolTable
70
1
0
STYLE
5
11
100
AcDbSymbolTableRecord
100
AcDbTextStyleTableRecord
2
STANDARD
70
0
0
ENDTAB
0
TABLE
2
VIEW
5
6
100
AcDbSymbolTable
70
0
0
ENDTAB
0
TABLE
2
UCS
5
7
100
AcDbSymbolTable
70
0
0
ENDTAB
0
TABLE
2
APPID
5
9
100
AcDbSymbolTable
70
2
0
APPID
5
12
100
AcDbSymbolTableRecord
100
AcDbRegAppTableRecord
2
ACAD
70
0
0
ENDTAB
0
TABLE
2
DIMSTYLE
5
A
100
AcDbSymbolTable
70
1
0
ENDTAB
0
TABLE
2
BLOCK_RECORD
5
1
100
AcDbSymbolTable
70
1
0
BLOCK_RECORD
5
1F
100
AcDbSymbolTableRecord
100
AcDbBlockTableRecord
2
*MODEL_SPACE
0
BLOCK_RECORD
5
1B
100
AcDbSymbolTableRecord
100
AcDbBlockTableRecord
2
*PAPER_SPACE
0
ENDTAB
0
ENDSEC
0
SECTION
2
BLOCKS
0
BLOCK
5
20
100
AcDbEntity
100
AcDbBlockBegin
2
*MODEL_SPACE
0
ENDBLK
5
21
100
AcDbEntity
100
AcDbBlockEnd
0
BLOCK
5
1C
100
AcDbEntity
100
AcDbBlockBegin
2
*PAPER_SPACE
0
ENDBLK
5
1D
100
AcDbEntity
100
AcDbBlockEnd
0
ENDSEC
0
SECTION
2
ENTITIES
0
LINE
5
100
100
AcDbEntity
8
0
100
AcDbLine
10
-77.852214111558595
20
18.131508016127526
30
0
11
-95.852214111558581
21
16.556712072660897
31
2.7843016864672525e-30
0
LINE
5
101
100
AcDbEntity
8
0
100
AcDbLine
10
-95.852214111558581
20
16.556712072660897
30
2.7843016864672525e-30
11
-95.852214111558595
21
16.131508016127526
31
2.6015288382639654e-32
0
LINE
5
102
100
AcDbEntity
8
0
100
AcDbLine
10
-95.852214111558595
20
16.131508016127526
30
2.6015288382639654e-32
11
-76.932833991309494
21
16.131508016127519
31
-1.8655949159850537e-30
0
ARC
5
103
100
AcDbEntity
8
0
100
AcDbCircle
10
-76.932833991309536
20
18.694008016126716
30
0
40
2.5624999999991949
100
AcDbArc
50
270.00000000000097
51
353.38441383823806
0
ARC
5
104
100
AcDbEntity
8
0
100
AcDbCircle
10
-63.460640406002767
20
17.131508016127533
30
-1.0947644252537633e-46
40
10.999999999999986
100
AcDbArc
50
59.999999999999858
51
173.38441383823724
0
ARC
5
105
100
AcDbEntity
8
0
100
AcDbCircle
10
-58.241890406002874
20
26.170648168128118
30
-2.4769045121366395e-45
40
0.56249999999959266
100
AcDbArc
50
-120.00055300090077
51
59.999999999962199
0
ARC
5
106
100
AcDbEntity
8
0
100
AcDbCircle
10
-63.460640406002767
20
17.131508016127533
30
-1.0947644252537633e-46
40
9.8750000000284857
100
AcDbArc
50
60.000031500053311
51
300.00000000003104
0
ARC
5
107
100
AcDbEntity
8
0
100
AcDbCircle
10
-59.804390406001779
20
10.798697250951953
30
0
40
2.5625000000843472
100
AcDbArc
50
-59.999999999878611
51
120.00000000012143
0
ARC
5
108
100
AcDbEntity
8
0
100
AcDbCircle
10
-63.460640406002767
20
17.131508016127533
30
-1.0947644252537633e-46
40
4.7499999999179217
100
AcDbArc
50
12.337816608340702
51
299.99999999993349
0
ARC
5
109
100
AcDbEntity
8
0
100
AcDbCircle
10
-56.317024374889272
20
18.69400801613515
30
0
40
2.5625000000824567
100
AcDbArc
50
192.33781660856491
51
270.00150476521031
0
LINE
5
110
100
AcDbEntity
8
0
100
AcDbLine
10
-56.316957075676584
20
16.131508015680176
30
0
11
-54.035041201991589
21
16.131508015680176
31
-2.2501427771917222e-31
0
ARC
5
111
100
AcDbEntity
8
0
100
AcDbCircle
10
-54.03502642897071
20
15.56900801613642
30
0
40
0.56250000008262091
100
AcDbArc
50
12.337816610908362
51
90.001504767551182
0
ARC
5
112
100
AcDbEntity
8
0
100
AcDbCircle
10
-46.891410397857342
20
17.131508016143972
30
-2.299005293032903e-45
40
6.7499999999176215
100
AcDbArc
50
-167.66218339178846
51
119.99999999980395
0
ARC
5
113
100
AcDbEntity
8
0
100
AcDbCircle
10
-50.547660397858188
20
23.464318781319619
30
0
40
0.56250000008425738
100
AcDbArc
50
120.00000000232843
51
300.00000000232848
0
ARC
5
114
100
AcDbEntity
8
0
100
AcDbCircle
10
-46.891410397857342
20
17.131508016143972
30
-2.299005293032903e-45
40
7.875000000086267
100
AcDbArc
50
-119.99982005526894
51
120.00000000016459
0
ARC
5
115
100
AcDbEntity
8
0
100
AcDbCircle
10
-52.110160397857108
20
8.0923678641434567
30
-2.2579516270858869e-46
40
2.5625000000721854
100
AcDbArc
50
59.999446999128715
51
239.99999999999199
0
ARC
5
116
100
AcDbEntity
8
0
100
AcDbCircle
10
-46.891410397857342
20
17.131508016143972
30
-2.299005293032903e-45
40
12.999999999999851
100
AcDbArc
50
240.00000000000023
51
353.38441383823761
0
ARC
5
117
100
AcDbEntity
8
0
100
AcDbCircle
10
-33.419216812550445
20
15.569008016144849
30
0
40
0.56249999999919975
100
AcDbArc
50
90.00000000000145
51
173.38441383823871
0
LINE
5
118
100
AcDbEntity
8
0
100
AcDbLine
10
-33.419216812550459
20
16.13150801614405
30
9.2444637335733781e-33
11
-24.499836692292803
21
16.131508016144057
31
-8.6315109295504659e-31
0
ARC
5
119
100
AcDbEntity
8
0
100
AcDbCircle
10
-24.499836692292803
20
13.131508016144055
30
0
40
2.9999999999999982
100
AcDbArc
50
0
51
90
0
LINE
5
120
100
AcDbEntity
8
0
100
AcDbLine
10
-21.499836692292806
20
13.131508016149205
30
1.2325951640771244e-32
11
-21.49983669229989
21
12.612048159358782
31
-3.6831021378044113e-32
0
LINE
5
121
100
AcDbEntity
8
0
100
AcDbLine
10
-21.49983669229989
20
12.612048159358782
30
-3.6831021378044113e-32
11
-18.500000313874146
21
12.612048159358773
31
5.4738221262688167e-47
0
LINE
5
122
100
AcDbEntity
8
0
100
AcDbLine
10
-18.500000313874146
20
12.612048159358773
30
5.4738221262688167e-47
11
-18.500000313874136
21
15.150700120036502
31
8.3732171627545411e-47
0
ARC
5
123
100
AcDbEntity
8
0
100
AcDbCircle
10
-16.500000313874128
20
15.150700120036495
30
0
40
1.9999999999999998
100
AcDbArc
50
124.16018886869395
51
180
0
ARC
5
124
100
AcDbEntity
8
0
100
AcDbCircle
10
-19.003392632363052
20
18.839841349500098
30
0
40
2.4583333333430293
100
AcDbArc
50
-55.839811131306107
51
45.000000001075676
0
ARC
5
125
100
AcDbEntity
8
0
100
AcDbCircle
10
-11.284143604417407
20
26.559090377456712
30
3.8893845486632136e-61
40
8.4583333333208
100
AcDbArc
50
134.99999999973983
51
224.99999999973991
0
ARC
5
126
100
AcDbEntity
8
0
100
AcDbCircle
10
-16.764221158619858
20
32.039167931649224
30
-6.0771633572862712e-63
40
0.70833333331833714
100
AcDbArc
50
-44.999999149903026
51
134.99999964267909
0
ARC
5
127
100
AcDbEntity
8
0
100
AcDbCircle
10
-11.284143604417407
20
26.559090377456712
30
3.8893845486632136e-61
40
7.0416666666841188
100
AcDbArc
50
134.99999991454447
51
224.99999991454462
0
ARC
5
128
100
AcDbEntity
8
0
100
AcDbCircle
10
-14.525049684856997
20
23.318184297019513
30
0
40
2.4583333333507182
100
AcDbArc
50
-135.00000024473962
51
44.999999755260468
0
ARC
5
129
100
AcDbEntity
8
0
100
AcDbCircle
10
-11.284143604417407
20
26.559090377456712
30
3.8893845486632136e-61
40
2.1249999999826956
100
AcDbArc
50
-44.999999716915411
51
225.00000028308446
0
ARC
5
130
100
AcDbEntity
8
0
100
AcDbCircle
10
-8.0432375239806237
20
23.318184297019929
30
0
40
2.458333333348433
100
AcDbArc
50
134.99999975529977
51
314.9999997552992
0
ARC
5
131
100
AcDbEntity
8
0
100
AcDbCircle
10
-11.284143604417407
20
26.559090377456712
30
3.8893845486632136e-61
40
7.0416666666795464
100
AcDbArc
50
-45.00000008542812
51
44.999999914571831
0
ARC
5
132
100
AcDbEntity
8
0
100
AcDbCircle
10
-5.8040660502248898
20
32.039167931649175
30
3.4211388289180104e-48
40
0.70833333331585158
100
AcDbArc
50
45.000000849253446
51
225.00000084925333
0
ARC
5
133
100
AcDbEntity
8
0
100
AcDbCircle
10
-11.284143604417407
20
26.559090377456712
30
3.8893845486632136e-61
40
8.4583333333112414
100
AcDbArc
50
-44.999999928880506
51
45.00000007111948
0
ARC
5
134
100
AcDbEntity
8
0
100
AcDbCircle
10
-3.564894576463955
20
18.839841349503121
30
0
40
2.4583333333559603
100
AcDbArc
50
134.99999975529852
51
270.00004148898489
0
LINE
5
135
100
AcDbEntity
8
0
100
AcDbLine
10
-3.5648927963371211
20
16.381508016147809
30
6.8299815238358663e-33
11
-3.4930925062123919
21
16.381508016147805
31
-1.7105694144590052e-48
0
ARC
5
136
100
AcDbEntity
8
0
100
AcDbCircle
10
-3.4930925062124851
20
14.381508016147805
30
0
40
1.9999999999999991
100
AcDbArc
50
4.7763045040954601
51
89.999999999997328
0
LINE
5
137
100
AcDbEntity
8
0
100
AcDbLine
10
-1.5000377457934053
20
14.548039460538467
30
1.2569060148819491e-62
11
1.5022660497862201
21
14.548039460538458
31
5.4738221262688167e-47
0
LINE
5
138
100
AcDbEntity
8
0
100
AcDbLine
10
1.5022660497862201
20
14.548039460538458
30
5.4738221262688167e-47
11
1.5022660497861882
21
15.544767987906658
31
-9.2034250967690637e-47
0
ARC
5
139
100
AcDbEntity
8
0
100
AcDbCircle
10
3.5022660497861846
20
15.544767987906718
30
0
40
2.0000000000000009
100
AcDbArc
50
116.58122512553513
51
180
0
ARC
5
140
100
AcDbEntity
8
0
100
AcDbCircle
10
3.9497321141117734
20
14.650467075865928
30
2.9656557183557003e-60
40
3.0000000000000115
100
AcDbArc
50
98.996789468307242
51
116.58122512553503
0
ARC
5
141
100
AcDbEntity
8
0
100
AcDbCircle
10
2.9984257988097851
20
20.658957796488959
30
0
40
3.0833333334074653
100
AcDbArc
50
-81.00321053169273
51
45.000000000142364
0
ARC
5
142
100
AcDbEntity
8
0
100
AcDbCircle
10
13.899655342102049
20
31.560187339782694
30
1.9446922743316068e-61
40
12.333333333259759
100
AcDbArc
50
134.99999999996925
51
224.99999999996925
0
ARC
5
143
100
AcDbEntity
8
0
100
AcDbCircle
10
5.9447040537579188
20
39.515138628128902
30
4.5330089483163638e-47
40
1.0833333332646926
100
AcDbArc
50
-45.000000000272614
51
134.99999999972741
0
ARC
5
144
100
AcDbEntity
8
0
100
AcDbCircle
10
13.899655342102049
20
31.560187339782694
30
1.9446922743316068e-61
40
10.166666666730373
100
AcDbArc
50
135.00000000002078
51
225.0000000000208
0
ARC
5
145
100
AcDbEntity
8
0
100
AcDbCircle
10
8.8909823087029345
20
26.551514306377975
30
0
40
3.0833333334009838
100
AcDbArc
50
-135.00000000000506
51
45.000000853768618
0
ARC
5
146
100
AcDbEntity
8
0
100
AcDbCircle
10
13.899655342102049
20
31.560187339782694
30
1.9446922743316068e-61
40
3.9999999999284181
100
AcDbArc
50
-45.000000658056507
51
224.99999934194346
0
ARC
5
147
100
AcDbEntity
8
0
100
AcDbCircle
10
18.908328375506841
20
26.551514306377882
30
0
40
3.0833333334050428
100
AcDbArc
50
135.00000085369467
51
315.00000085369527
0
ARC
5
148
100
AcDbEntity
8
0
100
AcDbCircle
10
13.899655342102049
20
31.560187339782694
30
1.9446922743316068e-61
40
10.166666666738527
100
AcDbArc
50
-44.999999741092523
51
45.000000258907477
0
ARC
5
149
100
AcDbEntity
8
0
100
AcDbCircle
10
21.854606630449865
20
39.515138628128518
30
-3.0385816786431356e-63
40
1.0833333332588762
100
AcDbArc
50
44.99999757017796
51
224.99999757017838
0
ARC
5
150
100
AcDbEntity
8
0
100
AcDbCircle
10
13.899655342102049
20
31.560187339782694
30
1.9446922743316068e-61
40
12.33333333325627
100
AcDbArc
50
-45.000000213436842
51
44.999999786563151
0
ARC
5
151
100
AcDbEntity
8
0
100
AcDbCircle
10
24.800884885394858
20
20.65895779648983
30
0
40
3.0833333334107182
100
AcDbArc
50
135.00000085374668
51
233.32278625445895
0
ARC
5
152
100
AcDbEntity
8
0
100
AcDbCircle
10
21.764578178430266
20
16.582057091320973
30
0
40
2
100
AcDbArc
50
29.78743752931349
51
53.322786254458904
0
LINE
5
153
100
AcDbEntity
8
0
100
AcDbLine
10
23.500326972968324
20
17.575624463097885
30
4.3790577010150553e-47
11
23.500326972958888
21
13.496241328151385
31
3.9698806673442209e-46
0
LINE
5
154
100
AcDbEntity
8
0
100
AcDbLine
10
23.500326972958888
20
13.496241328151385
30
3.9698806673442209e-46
11
26.500326972958888
21
13.496241328151374
31
5.4738221262688167e-47
0
LINE
5
155
100
AcDbEntity
8
0
100
AcDbLine
10
26.500326972958888
20
13.496241328151374
30
5.4738221262688167e-47
11
26.500326972958902
21
17.575624463092492
31
4.5862029010929613e-33
0
LINE
5
156
100
AcDbEntity
8
0
100
AcDbLine
10
26.500326972958902
20
17.575624463092492
30
4.5862029010929613e-33
11
26.500326943160324
21
19.575624463083717
31
1.2325954588069089e-32
0
LINE
5
157
100
AcDbEntity
8
0
100
AcDbLine
10
26.500326943160324
20
19.575624463083717
30
1.2325954588069089e-32
11
24.800881676451137
21
19.575624463083862
31
0
0
ARC
5
158
100
AcDbEntity
8
0
100
AcDbCircle
10
24.800884885394858
20
20.65895779648983
30
0
40
1.0833333334107191
100
AcDbArc
50
135.00000085388643
51
269.99983028406291
0
ARC
5
159
100
AcDbEntity
8
0
100
AcDbCircle
10
13.899655342102049
20
31.560187339782694
30
1.9446922743316068e-61
40
14.33333333325627
100
AcDbArc
50
-45.000000064538085
51
44.999999935461943
0
ARC
5
160
100
AcDbEntity
8
0
100
AcDbCircle
10
21.854606630449865
20
39.515138628128518
30
-3.0385816786431356e-63
40
3.0833333332588748
100
AcDbArc
50
44.999999700011422
51
224.99999970001144
0
ARC
5
161
100
AcDbEntity
8
0
100
AcDbCircle
10
13.899655342102049
20
31.560187339782694
30
1.9446922743316068e-61
40
8.1666666667385268
100
AcDbArc
50
-44.999999886748839
51
45.000000113251133
0
ARC
5
162
100
AcDbEntity
8
0
100
AcDbCircle
10
18.908328375506841
20
26.551514306377882
30
0
40
1.0833333334050652
100
AcDbArc
50
135.00000085374018
51
315.00000085374029
0
ARC
5
163
100
AcDbEntity
8
0
100
AcDbCircle
10
13.899655342102049
20
31.560187339782694
30
1.9446922743316068e-61
40
5.9999999999283951
100
AcDbArc
50
-45.000000154147642
51
224.99999984585259
0
ARC
5
164
100
AcDbEntity
8
0
100
AcDbCircle
10
8.8909823087029345
20
26.551514306377975
30
0
40
1.0833333334009851
100
AcDbArc
50
-134.99999999982484
51
45.00000085394916
0
ARC
5
165
100
AcDbEntity
8
0
100
AcDbCircle
10
13.899655342102049
20
31.560187339782694
30
1.9446922743316068e-61
40
8.1666666667303751
100
AcDbArc
50
135.00000000005102
51
225.00000000005105
0
ARC
5
166
100
AcDbEntity
8
0
100
AcDbCircle
10
5.9447040537579188
20
39.515138628128902
30
4.5330089483163638e-47
40
3.0833333332646911
100
AcDbArc
50
-45.000000000162387
51
134.9999999998376
0
ARC
5
167
100
AcDbEntity
8
0
100
AcDbCircle
10
13.899655342102049
20
31.560187339782694
30
1.9446922743316068e-61
40
14.333333333259759
100
AcDbArc
50
134.99999999995921
51
224.99999999995919
0
ARC
5
168
100
AcDbEntity
8
0
100
AcDbCircle
10
2.9984257988097851
20
20.658957796488959
30
0
40
1.0833333334074657
100
AcDbArc
50
-89.999999999203837
51
45.00000000059471
0
LINE
5
169
100
AcDbEntity
8
0
100
AcDbLine
10
2.9984257988248384
20
19.575624463081493
30
-5.6106575247167745e-47
11
-1.5000377457933911
21
19.575624463078277
31
5.4738221262688167e-47
0
ARC
5
170
100
AcDbEntity
8
0
100
AcDbCircle
10
-4.092862200891922
20
21.084684218370633
30
0
40
2.9999999999999991
100
AcDbArc
50
280.1362383406298
51
329.80000186943948
0
ARC
5
171
100
AcDbEntity
8
0
100
AcDbCircle
10
-3.564894576463955
20
18.839841349503121
30
0
40
0.70833333335595983
100
AcDbArc
50
134.99999704120529
51
270.00003877489189
0
ARC
5
172
100
AcDbEntity
8
0
100
AcDbCircle
10
-11.284143604417407
20
26.559090377456712
30
3.8893845486632136e-61
40
10.208333333311243
100
AcDbArc
50
-44.999999794696414
51
45.000000205303579
0
ARC
5
173
100
AcDbEntity
8
0
100
AcDbCircle
10
-5.8040660502248898
20
32.039167931649175
30
3.4211388289180104e-48
40
2.4583333333158475
100
AcDbArc
50
45.0000008525327
51
225.00000085253248
0
ARC
5
174
100
AcDbEntity
8
0
100
AcDbCircle
10
-11.284143604417407
20
26.559090377456712
30
3.8893845486632136e-61
40
5.2916666666795447
100
AcDbArc
50
-45.000000396058795
51
44.99999960394117
0
ARC
5
175
100
AcDbEntity
8
0
100
AcDbCircle
10
-8.0432375239806237
20
23.318184297019929
30
0
40
0.70833333334841864
100
AcDbArc
50
134.99999704120845
51
314.99999704120791
0
ARC
5
176
100
AcDbEntity
8
0
100
AcDbCircle
10
-11.284143604417407
20
26.559090377456712
30
3.8893845486632136e-61
40
3.8749999999827112
100
AcDbArc
50
-44.999999459145613
51
225.00000054085393
0
ARC
5
177
100
AcDbEntity
8
0
100
AcDbCircle
10
-14.525049684856997
20
23.318184297019513
30
0
40
0.7083333333507148
100
AcDbArc
50
-135.0000029589267
51
44.999997041073826
0
ARC
5
178
100
AcDbEntity
8
0
100
AcDbCircle
10
-11.284143604417407
20
26.559090377456712
30
3.8893845486632136e-61
40
5.2916666666841214
100
AcDbArc
50
134.99999960390483
51
224.99999960390488
0
ARC
5
179
100
AcDbEntity
8
0
100
AcDbCircle
10
-16.764221158619858
20
32.039167931649224
30
-6.0771633572862712e-63
40
2.4583333333183353
100
AcDbArc
50
-44.999999147224493
51
134.99999999900237
0
ARC
5
180
100
AcDbEntity
8
0
100
AcDbCircle
10
-11.284143604417407
20
26.559090377456712
30
3.8893845486632136e-61
40
10.208333333320789
100
AcDbArc
50
134.99999999979923
51
224.99999999979923
0
ARC
5
181
100
AcDbEntity
8
0
100
AcDbCircle
10
-19.003392632363052
20
18.839841349500098
30
0
40
0.7083333333430275
100
AcDbArc
50
-89.999999996467594
51
45.000000003520498
0
LINE
5
182
100
AcDbEntity
8
0
100
AcDbLine
10
-19.003392632319382
20
18.131508016157071
30
5.9071722628516558e-47
11
-33.419216812550452
21
18.13150801614405
31
1.4215100140488782e-30
0
ARC
5
183
100
AcDbEntity
8
0
100
AcDbCircle
10
-33.419216812550445
20
15.569008016144849
30
0
40
2.5624999999991993
100
AcDbArc
50
90.000000000000142
51
173.38441383823783
0
ARC
5
184
100
AcDbEntity
8
0
100
AcDbCircle
10
-46.891410397857342
20
17.131508016143972
30
-2.299005293032903e-45
40
10.999999999999851
100
AcDbArc
50
240.00000000000034
51
353.38441383823761
0
ARC
5
185
100
AcDbEntity
8
0
100
AcDbCircle
10
-52.110160397857108
20
8.0923678641434567
30
-2.2579516270858869e-46
40
0.562499999999589
100
AcDbArc
50
59.999446999098247
51
239.99999999996339
0
ARC
5
186
100
AcDbEntity
8
0
100
AcDbCircle
10
-46.891410397857342
20
17.131508016143972
30
-2.299005293032903e-45
40
9.8750000000283631
100
AcDbArc
50
-119.99996849994619
51
120.00000000003014
0
ARC
5
187
100
AcDbEntity
8
0
100
AcDbCircle
10
-50.547660397858188
20
23.464318781319619
30
0
40
2.5625000000843432
100
AcDbArc
50
120.00000000012149
51
300.00000000012119
0
ARC
5
188
100
AcDbEntity
8
0
100
AcDbCircle
10
-46.891410397857342
20
17.131508016143972
30
-2.299005293032903e-45
40
4.7499999999177778
100
AcDbArc
50
-167.66218339165968
51
119.99999999993175
0
ARC
5
189
100
AcDbEntity
8
0
100
AcDbCircle
10
-54.03502642897071
20
15.56900801613642
30
0
40
2.5625000000824643
100
AcDbArc
50
12.337816608564781
51
90.001504765210498
0
LINE
5
190
100
AcDbEntity
8
0
100
AcDbLine
10
-54.035093728183398
20
18.131508015335292
30
-1.9746442530990596e-31
11
-56.317009601868371
21
18.131508015680172
31
2.2501427771917047e-31
0
ARC
5
191
100
AcDbEntity
8
0
100
AcDbCircle
10
-56.317024374889272
20
18.69400801613515
30
0
40
0.56250000008262091
100
AcDbArc
50
192.33781661090819
51
270.0015047675509
0
ARC
5
192
100
AcDbEntity
8
0
100
AcDbCircle
10
-63.460640406002767
20
17.131508016127533
30
-1.0947644252537633e-46
40
6.7499999999177573
100
AcDbArc
50
12.337816608211856
51
299.99999999980531
0
ARC
5
193
100
AcDbEntity
8
0
100
AcDbCircle
10
-59.804390406001779
20
10.798697250951953
30
0
40
0.56250000008425927
100
AcDbArc
50
-59.999999997671765
51
120.00000000232809
0
ARC
5
194
100
AcDbEntity
8
0
100
AcDbCircle
10
-63.460640406002767
20
17.131508016127533
30
-1.0947644252537633e-46
40
7.875000000086394
100
AcDbArc
50
60.000179944730348
51
300.0000000001657
0
ARC
5
195
100
AcDbEntity
8
0
100
AcDbCircle
10
-58.241890406002874
20
26.170648168128118
30
-2.4769045121366395e-45
40
2.5625000000721858
100
AcDbArc
50
-120.00055300087089
51
59.999999995825533
0
ARC
5
196
100
AcDbEntity
8
0
100
AcDbCircle
10
-63.460640406002767
20
17.131508016127533
30
-1.0947644252537633e-46
40
12.999999999999988
100
AcDbArc
50
59.999999999178669
51
173.38441383823726
0
ARC
5
197
100
AcDbEntity
8
0
100
AcDbCircle
10
-76.932833991309536
20
18.694008016126716
30
0
40
0.56249999999919753
100
AcDbArc
50
270.0000000000029
51
353.38441383823914
0
LINE
5
198
100
AcDbEntity
8
0
100
AcDbLine
10
-76.932833991309508
20
18.131508016127519
30
1.1401505270720967e-31
11
-77.852214111558595
21
18.131508016127526
31
0
0
ENDSEC
0
SECTION
2
OBJECTS
0
DICTIONARY
5
C
100
AcDbDictionary
3
ACAD_GROUP
350
D
3
ACAD_MLINESTYLE
350
17
0
DICTIONARY
5
D
100
AcDbDictionary
0
DICTIONARY
5
1A
330
C
100
AcDbDictionary
0
DICTIONARY
5
17
100
AcDbDictionary
0
ENDSEC
0
EOF
