0
SECTION
2
HEADER
9
$INSUNITS
70
4
9
$ACADVER
1
AC1014
9
$HANDSEED
5
FFFF
0
ENDSEC
0
SECTION
2
TABLES
0
TABLE
2
VPORT
5
8
100
AcDbSymbolTable
0
ENDTAB
0
TABLE
2
LTYPE
5
5
100
AcDbSymbolTable
0
LTYPE
5
14
100
AcDbSymbolTableRecord
100
AcDbLinetypeTableRecord
2
BYBLOCK
70
0
0
LTYPE
5
15
100
AcDbSymbolTableRecord
100
AcDbLinetypeTableRecord
2
BYLAYER
70
0
0
ENDTAB
0
TABLE
2
LAYER
5
2
100
AcDbSymbolTable
70
2
0
LAYER
5
50
100
AcDbSymbolTableRecord
100
AcDbLayerTableRecord
2
0
70
0
6
CONTINUOUS
0
ENDTAB
0
TABLE
2
STYLE
5
3
100
AcDbSymbolTable
70
1
0
STYLE
5
11
100
AcDbSymbolTableRecord
100
AcDbTextStyleTableRecord
2
STANDARD
70
0
0
ENDTAB
0
TABLE
2
VIEW
5
6
100
AcDbSymbolTable
70
0
0
ENDTAB
0
TABLE
2
UCS
5
7
100
AcDbSymbolTable
70
0
0
ENDTAB
0
TABLE
2
APPID
5
9
100
AcDbSymbolTable
70
2
0
APPID
5
12
100
AcDbSymbolTableRecord
100
AcDbRegAppTableRecord
2
ACAD
70
0
0
ENDTAB
0
TABLE
2
DIMSTYLE
5
A
100
AcDbSymbolTable
70
1
0
ENDTAB
0
TABLE
2
BLOCK_RECORD
5
1
100
AcDbSymbolTable
70
1
0
BLOCK_RECORD
5
1F
100
AcDbSymbolTableRecord
100
AcDbBlockTableRecord
2
*MODEL_SPACE
0
BLOCK_RECORD
5
1B
100
AcDbSymbolTableRecord
100
AcDbBlockTableRecord
2
*PAPER_SPACE
0
ENDTAB
0
ENDSEC
0
SECTION
2
BLOCKS
0
BLOCK
5
20
100
AcDbEntity
100
AcDbBlockBegin
2
*MODEL_SPACE
0
ENDBLK
5
21
100
AcDbEntity
100
AcDbBlockEnd
0
BLOCK
5
1C
100
AcDbEntity
100
AcDbBlockBegin
2
*PAPER_SPACE
0
ENDBLK
5
1D
100
AcDbEntity
100
AcDbBlockEnd
0
ENDSEC
0
SECTION
2
ENTITIES
0
LINE
5
100
100
AcDbEntity
8
0
100
AcDbLine
10
-77.852214111558595
20
18.131508016127526
30
0
11
-95.852214111558581
21
16.556712072660897
31
2.7843016864672525e-30
0
LINE
5
101
100
AcDbEntity
8
0
100
AcDbLine
10
-95.852214111558581
20
16.556712072660897
30
2.7843016864672525e-30
11
-95.852214111558595
21
16.131508016127526
31
2.6015288382639654e-32
0
LINE
5
102
100
AcDbEntity
8
0
100
AcDbLine
10
-95.852214111558595
20
16.131508016127526
30
2.6015288382639654e-32
11
-76.932833991311412
21
16.131508016127519
31
-1.8655949159848645e-30
0
ARC
5
103
100
AcDbEntity
8
0
100
AcDbCircle
10
-76.932833991311455
20
18.694008016128873
30
0
40
2.5625000000013531
100
AcDbArc
50
270.00000000000097
51
353.38441383822953
0
ARC
5
104
100
AcDbEntity
8
0
100
AcDbCircle
10
-63.460640406002767
20
17.131508016127533
30
-1.0947644252537633e-46
40
10.999999999999986
100
AcDbArc
50
59.999999999999858
51
173.38441383822916
0
ARC
5
105
100
AcDbEntity
8
0
100
AcDbCircle
10
-58.241890406001289
20
26.170648168132232
30
-5.7475132325822575e-46
40
0.56249999999520506
100
AcDbArc
50
-120.00002796689768
51
59.999999999892445
0
ARC
5
106
100
AcDbEntity
8
0
100
AcDbCircle
10
-63.460640406002767
20
17.131508016127533
30
-1.0947644252537633e-46
40
9.8750000000096101
100
AcDbArc
50
60.0000015930571
51
299.99999666784214
0
ARC
5
107
100
AcDbEntity
8
0
100
AcDbCircle
10
-59.804390406002824
20
10.798697250953783
30
0
40
2.562500000009718
100
AcDbArc
50
-60.000012840996959
51
119.99998715900587
0
ARC
5
108
100
AcDbEntity
8
0
100
AcDbCircle
10
-63.460640406002767
20
17.131508016127533
30
-1.0947644252537633e-46
40
4.7499999999905853
100
AcDbArc
50
12.337823535716479
51
300.00000692737757
0
ARC
5
109
100
AcDbEntity
8
0
100
AcDbCircle
10
-56.317024374891709
20
18.694008016125398
30
0
40
2.5625000000054317
100
AcDbArc
50
192.33780376737423
51
270.00018076432167
0
LINE
5
110
100
AcDbEntity
8
0
100
AcDbLine
10
-56.317016290376962
20
16.131508016132628
30
1.6424322593740983e-30
11
-54.035028903531298
21
16.13150801614681
31
-2.2502132947034197e-31
0
ARC
5
111
100
AcDbEntity
8
0
100
AcDbCircle
10
-54.03502642896828
20
15.569008016146173
30
0
40
0.56250000000608102
100
AcDbArc
50
12.337875059976458
51
90.000252056919294
0
ARC
5
112
100
AcDbEntity
8
0
100
AcDbCircle
10
-46.891410397857342
20
17.131508016143972
30
-2.299005293032903e-45
40
6.7499999999900169
100
AcDbArc
50
-167.66218826262062
51
119.99999512904077
0
ARC
5
113
100
AcDbEntity
8
0
100
AcDbCircle
10
-50.547660397857143
20
23.464318781317786
30
0
40
0.56250000001010836
100
AcDbArc
50
120.00005845148783
51
300.00005845148769
0
ARC
5
114
100
AcDbEntity
8
0
100
AcDbCircle
10
-46.891410397857342
20
17.131508016143972
30
-2.299005293032903e-45
40
7.8750000000098117
100
AcDbArc
50
-119.99999089967977
51
120.00000417510462
0
ARC
5
115
100
AcDbEntity
8
0
100
AcDbCircle
10
-52.110160397858685
20
8.0923678641393355
30
3.8316754883881717e-46
40
2.5624999999952114
100
AcDbArc
50
59.999972033187099
51
239.99999999997641
0
ARC
5
116
100
AcDbEntity
8
0
100
AcDbCircle
10
-46.891410397857342
20
17.131508016143972
30
-2.299005293032903e-45
40
12.999999999999851
100
AcDbArc
50
240.00000000000023
51
353.38441383822953
0
ARC
5
117
100
AcDbEntity
8
0
100
AcDbCircle
10
-33.419216812548541
20
15.569008016142696
30
0
40
0.56250000000135358
100
AcDbArc
50
90.000000000002174
51
173.38441383823064
0
LINE
5
118
100
AcDbEntity
8
0
100
AcDbLine
10
-33.419216812548562
20
16.13150801614405
30
9.2444637321925819e-33
11
-26.499836692299887
21
16.131508016144053
31
-6.659358666490908e-31
0
ARC
5
119
100
AcDbEntity
8
0
100
AcDbCircle
10
-26.499836692299894
20
13.131508016144055
30
0
40
2.9999999999999982
100
AcDbArc
50
0
51
89.999999999999858
0
LINE
5
120
100
AcDbEntity
8
0
100
AcDbLine
10
-23.499836692299894
20
13.131508016144046
30
1.2325951644077477e-32
11
-23.499836692299887
21
12.713288015819156
31
-3.3726735976749366e-47
0
LINE
5
121
100
AcDbEntity
8
0
100
AcDbLine
10
-23.499836692299887
20
12.713288015819156
30
-3.3726735976749366e-47
11
-20.500000313874139
21
12.713288015819145
31
5.4738221262688167e-47
0
LINE
5
122
100
AcDbEntity
8
0
100
AcDbLine
10
-20.500000313874139
20
12.713288015819145
30
5.4738221262688167e-47
11
-20.500000313874139
21
14.410018296049333
31
-9.1487415661860953e-47
0
ARC
5
123
100
AcDbEntity
8
0
100
AcDbCircle
10
-18.500000313874136
20
14.410018296049326
30
0
40
2.0000000000000013
100
AcDbArc
50
96.483116280023623
51
180
0
ARC
5
124
100
AcDbEntity
8
0
100
AcDbCircle
10
-19.003392632363052
20
18.839841349500098
30
0
40
2.4583333333430262
100
AcDbArc
50
-83.516883719976335
51
45.000000001075676
0
ARC
5
125
100
AcDbEntity
8
0
100
AcDbCircle
10
-11.284143604417407
20
26.559090377456712
30
3.8893845486632136e-61
40
8.4583333333208
100
AcDbArc
50
134.99999999973983
51
224.99999999973991
0
ARC
5
126
100
AcDbEntity
8
0
100
AcDbCircle
10
-16.764221158619858
20
32.039167931649224
30
-6.0771633572862712e-63
40
0.70833333331833714
100
AcDbArc
50
-44.999999149903026
51
134.99999964267909
0
ARC
5
127
100
AcDbEntity
8
0
100
AcDbCircle
10
-11.284143604417407
20
26.559090377456712
30
3.8893845486632136e-61
40
7.0416666666841188
100
AcDbArc
50
134.99999991454447
51
224.99999991454462
0
ARC
5
128
100
AcDbEntity
8
0
100
AcDbCircle
10
-14.525049684856997
20
23.318184297019513
30
0
40
2.4583333333507182
100
AcDbArc
50
-135.00000024473962
51
44.999999755260468
0
ARC
5
129
100
AcDbEntity
8
0
100
AcDbCircle
10
-11.284143604417407
20
26.559090377456712
30
3.8893845486632136e-61
40
2.1249999999826956
100
AcDbArc
50
-44.999999716915411
51
225.00000028308446
0
ARC
5
130
100
AcDbEntity
8
0
100
AcDbCircle
10
-8.0432375239806237
20
23.318184297019929
30
0
40
2.458333333348433
100
AcDbArc
50
134.99999975529977
51
314.9999997552992
0
ARC
5
131
100
AcDbEntity
8
0
100
AcDbCircle
10
-11.284143604417407
20
26.559090377456712
30
3.8893845486632136e-61
40
7.0416666666795464
100
AcDbArc
50
-45.00000008542812
51
44.999999914571831
0
ARC
5
132
100
AcDbEntity
8
0
100
AcDbCircle
10
-5.8040660502248898
20
32.039167931649175
30
3.4211388289180104e-48
40
0.70833333331585158
100
AcDbArc
50
45.000000849253446
51
225.00000084925333
0
ARC
5
133
100
AcDbEntity
8
0
100
AcDbCircle
10
-11.284143604417407
20
26.559090377456712
30
3.8893845486632136e-61
40
8.4583333333112414
100
AcDbArc
50
-44.999999928880506
51
45.00000007111948
0
ARC
5
134
100
AcDbEntity
8
0
100
AcDbCircle
10
-3.564894576463955
20
18.839841349503121
30
0
40
2.4583333333559603
100
AcDbArc
50
134.99999975529852
51
270.00004148898489
0
LINE
5
135
100
AcDbEntity
8
0
100
AcDbLine
10
-3.5648927963371211
20
16.381508016147809
30
6.8299815238358663e-33
11
-3.4930925062123919
21
16.381508016147805
31
-1.7105694144590052e-48
0
ARC
5
136
100
AcDbEntity
8
0
100
AcDbCircle
10
-3.4930925062124851
20
14.381508016147805
30
0
40
1.9999999999999991
100
AcDbArc
50
4.7763045040954601
51
89.999999999997328
0
LINE
5
137
100
AcDbEntity
8
0
100
AcDbLine
10
-1.5000377457934053
20
14.548039460538467
30
1.2569060148819491e-62
11
1.5022660497862201
21
14.548039460538458
31
5.4738221262688167e-47
0
LINE
5
138
100
AcDbEntity
8
0
100
AcDbLine
10
1.5022660497862201
20
14.548039460538458
30
5.4738221262688167e-47
11
1.5022660497861882
21
15.544767987906658
31
-9.2034250967690637e-47
0
ARC
5
139
100
AcDbEntity
8
0
100
AcDbCircle
10
3.5022660497861846
20
15.544767987906718
30
0
40
2.0000000000000009
100
AcDbArc
50
116.58122512553513
51
180
0
ARC
5
140
100
AcDbEntity
8
0
100
AcDbCircle
10
3.9497321141117734
20
14.650467075865928
30
2.9656557183557003e-60
40
3.0000000000000115
100
AcDbArc
50
98.996789468307242
51
116.58122512553503
0
ARC
5
141
100
AcDbEntity
8
0
100
AcDbCircle
10
2.9984257988097851
20
20.658957796488959
30
0
40
3.0833333334074653
100
AcDbArc
50
-81.00321053169273
51
45.000000000142364
0
ARC
5
142
100
AcDbEntity
8
0
100
AcDbCircle
10
13.899655342102049
20
31.560187339782694
30
1.9446922743316068e-61
40
12.333333333259759
100
AcDbArc
50
134.99999999996925
51
224.99999999996925
0
ARC
5
143
100
AcDbEntity
8
0
100
AcDbCircle
10
5.9447040537579188
20
39.515138628128902
30
4.5330089483163638e-47
40
1.0833333332646926
100
AcDbArc
50
-45.000000000272614
51
134.99999999972741
0
ARC
5
144
100
AcDbEntity
8
0
100
AcDbCircle
10
13.899655342102049
20
31.560187339782694
30
1.9446922743316068e-61
40
10.166666666730373
100
AcDbArc
50
135.00000000002078
51
225.0000000000208
0
ARC
5
145
100
AcDbEntity
8
0
100
AcDbCircle
10
8.8909823087029345
20
26.551514306377975
30
0
40
3.0833333334009838
100
AcDbArc
50
-135.00000000000506
51
45.000000853768618
0
ARC
5
146
100
AcDbEntity
8
0
100
AcDbCircle
10
13.899655342102049
20
31.560187339782694
30
1.9446922743316068e-61
40
3.9999999999284181
100
AcDbArc
50
-45.000000658056507
51
224.99999934194346
0
ARC
5
147
100
AcDbEntity
8
0
100
AcDbCircle
10
18.908328375506841
20
26.551514306377882
30
0
40
3.0833333334050428
100
AcDbArc
50
135.00000085369467
51
315.00000085369527
0
ARC
5
148
100
AcDbEntity
8
0
100
AcDbCircle
10
13.899655342102049
20
31.560187339782694
30
1.9446922743316068e-61
40
10.166666666738527
100
AcDbArc
50
-44.999999741092523
51
45.000000258907477
0
ARC
5
149
100
AcDbEntity
8
0
100
AcDbCircle
10
21.854606630449865
20
39.515138628128518
30
-3.0385816786431356e-63
40
1.0833333332588762
100
AcDbArc
50
44.99999757017796
51
224.99999757017838
0
ARC
5
150
100
AcDbEntity
8
0
100
AcDbCircle
10
13.899655342102049
20
31.560187339782694
30
1.9446922743316068e-61
40
12.33333333325627
100
AcDbArc
50
-45.000000213436842
51
44.999999786563151
0
ARC
5
151
100
AcDbEntity
8
0
100
AcDbCircle
10
24.800884885394858
20
20.65895779648983
30
0
40
3.0833333334107182
100
AcDbArc
50
135.00000085374668
51
255.17238102269036
0
ARC
5
152
100
AcDbEntity
8
0
100
AcDbCircle
10
23.500000014858902
20
15.744898747986738
30
0
40
1.9999999999999973
100
AcDbArc
50
0
51
75.172381022690431
0
LINE
5
153
100
AcDbEntity
8
0
100
AcDbLine
10
25.500000014858898
20
15.744898747986731
30
1.3662814640184934e-62
11
25.500000014858891
21
13.496241328151378
31
4.4740136976076061e-47
0
LINE
5
154
100
AcDbEntity
8
0
100
AcDbLine
10
25.500000014858891
20
13.496241328151378
30
4.4740136976076061e-47
11
28.500000014858891
21
13.496241328151369
31
5.4738221262688167e-47
0
LINE
5
155
100
AcDbEntity
8
0
100
AcDbLine
10
28.500000014858891
20
13.496241328151369
30
5.4738221262688167e-47
11
28.500000014858905
21
17.575624463092325
31
4.586202901196745e-33
0
LINE
5
156
100
AcDbEntity
8
0
100
AcDbLine
10
28.500000014858905
20
17.575624463092325
30
4.586202901196745e-33
11
28.499999985060334
21
19.575624463083546
31
1.2325954588069089e-32
0
LINE
5
157
100
AcDbEntity
8
0
100
AcDbLine
10
28.499999985060334
20
19.575624463083546
30
1.2325954588069089e-32
11
24.800881676451141
21
19.575624463083862
31
0
0
ARC
5
158
100
AcDbEntity
8
0
100
AcDbCircle
10
24.800884885394858
20
20.65895779648983
30
0
40
1.0833333334107191
100
AcDbArc
50
135.00000085388643
51
269.99983028406308
0
ARC
5
159
100
AcDbEntity
8
0
100
AcDbCircle
10
13.899655342102049
20
31.560187339782694
30
1.9446922743316068e-61
40
14.33333333325627
100
AcDbArc
50
-45.000000064538085
51
44.999999935461943
0
ARC
5
160
100
AcDbEntity
8
0
100
AcDbCircle
10
21.854606630449865
20
39.515138628128518
30
-3.0385816786431356e-63
40
3.0833333332588748
100
AcDbArc
50
44.999999700011422
51
224.99999970001144
0
ARC
5
161
100
AcDbEntity
8
0
100
AcDbCircle
10
13.899655342102049
20
31.560187339782694
30
1.9446922743316068e-61
40
8.1666666667385268
100
AcDbArc
50
-44.999999886748839
51
45.000000113251133
0
ARC
5
162
100
AcDbEntity
8
0
100
AcDbCircle
10
18.908328375506841
20
26.551514306377882
30
0
40
1.0833333334050652
100
AcDbArc
50
135.00000085374018
51
315.00000085374029
0
ARC
5
163
100
AcDbEntity
8
0
100
AcDbCircle
10
13.899655342102049
20
31.560187339782694
30
1.9446922743316068e-61
40
5.9999999999283951
100
AcDbArc
50
-45.000000154147642
51
224.99999984585259
0
ARC
5
164
100
AcDbEntity
8
0
100
AcDbCircle
10
8.8909823087029345
20
26.551514306377975
30
0
40
1.0833333334009851
100
AcDbArc
50
-134.99999999982484
51
45.00000085394916
0
ARC
5
165
100
AcDbEntity
8
0
100
AcDbCircle
10
13.899655342102049
20
31.560187339782694
30
1.9446922743316068e-61
40
8.1666666667303751
100
AcDbArc
50
135.00000000005102
51
225.00000000005105
0
ARC
5
166
100
AcDbEntity
8
0
100
AcDbCircle
10
5.9447040537579188
20
39.515138628128902
30
4.5330089483163638e-47
40
3.0833333332646911
100
AcDbArc
50
-45.000000000162387
51
134.9999999998376
0
ARC
5
167
100
AcDbEntity
8
0
100
AcDbCircle
10
13.899655342102049
20
31.560187339782694
30
1.9446922743316068e-61
40
14.333333333259759
100
AcDbArc
50
134.99999999995921
51
224.99999999995919
0
ARC
5
168
100
AcDbEntity
8
0
100
AcDbCircle
10
2.9984257988097851
20
20.658957796488959
30
0
40
1.0833333334074657
100
AcDbArc
50
-89.999999999203837
51
45.00000000059471
0
LINE
5
169
100
AcDbEntity
8
0
100
AcDbLine
10
2.9984257988248384
20
19.575624463081493
30
-5.6106575247167745e-47
11
-1.5000377457933911
21
19.575624463078277
31
5.4738221262688167e-47
0
ARC
5
170
100
AcDbEntity
8
0
100
AcDbCircle
10
-4.092862200891922
20
21.084684218370633
30
0
40
2.9999999999999991
100
AcDbArc
50
280.1362383406298
51
329.80000186943948
0
ARC
5
171
100
AcDbEntity
8
0
100
AcDbCircle
10
-3.564894576463955
20
18.839841349503121
30
0
40
0.70833333335595983
100
AcDbArc
50
134.99999704120529
51
270.00003877489189
0
ARC
5
172
100
AcDbEntity
8
0
100
AcDbCircle
10
-11.284143604417407
20
26.559090377456712
30
3.8893845486632136e-61
40
10.208333333311243
100
AcDbArc
50
-44.999999794696414
51
45.000000205303579
0
ARC
5
173
100
AcDbEntity
8
0
100
AcDbCircle
10
-5.8040660502248898
20
32.039167931649175
30
3.4211388289180104e-48
40
2.4583333333158475
100
AcDbArc
50
45.0000008525327
51
225.00000085253248
0
ARC
5
174
100
AcDbEntity
8
0
100
AcDbCircle
10
-11.284143604417407
20
26.559090377456712
30
3.8893845486632136e-61
40
5.2916666666795447
100
AcDbArc
50
-45.000000396058795
51
44.99999960394117
0
ARC
5
175
100
AcDbEntity
8
0
100
AcDbCircle
10
-8.0432375239806237
20
23.318184297019929
30
0
40
0.70833333334841864
100
AcDbArc
50
134.99999704120845
51
314.99999704120791
0
ARC
5
176
100
AcDbEntity
8
0
100
AcDbCircle
10
-11.284143604417407
20
26.559090377456712
30
3.8893845486632136e-61
40
3.8749999999827112
100
AcDbArc
50
-44.999999459145613
51
225.00000054085393
0
ARC
5
177
100
AcDbEntity
8
0
100
AcDbCircle
10
-14.525049684856997
20
23.318184297019513
30
0
40
0.7083333333507148
100
AcDbArc
50
-135.0000029589267
51
44.999997041073826
0
ARC
5
178
100
AcDbEntity
8
0
100
AcDbCircle
10
-11.284143604417407
20
26.559090377456712
30
3.8893845486632136e-61
40
5.2916666666841214
100
AcDbArc
50
134.99999960390483
51
224.99999960390488
0
ARC
5
179
100
AcDbEntity
8
0
100
AcDbCircle
10
-16.764221158619858
20
32.039167931649224
30
-6.0771633572862712e-63
40
2.4583333333183353
100
AcDbArc
50
-44.999999147224493
51
134.99999999900237
0
ARC
5
180
100
AcDbEntity
8
0
100
AcDbCircle
10
-11.284143604417407
20
26.559090377456712
30
3.8893845486632136e-61
40
10.208333333320789
100
AcDbArc
50
134.99999999979923
51
224.99999999979923
0
ARC
5
181
100
AcDbEntity
8
0
100
AcDbCircle
10
-19.003392632363052
20
18.839841349500098
30
0
40
0.7083333333430275
100
AcDbArc
50
-89.999999996467594
51
45.000000003520498
0
LINE
5
182
100
AcDbEntity
8
0
100
AcDbLine
10
-19.003392632319382
20
18.131508016157071
30
5.9071722628516558e-47
11
-33.419216812548555
21
18.13150801614405
31
1.4215100140486908e-30
0
ARC
5
183
100
AcDbEntity
8
0
100
AcDbCircle
10
-33.419216812548541
20
15.569008016142696
30
0
40
2.5625000000013531
100
AcDbArc
50
90.000000000000313
51
173.38441383822959
0
ARC
5
184
100
AcDbEntity
8
0
100
AcDbCircle
10
-46.891410397857342
20
17.131508016143972
30
-2.299005293032903e-45
40
10.999999999999851
100
AcDbArc
50
240.00000000000034
51
353.38441383822953
0
ARC
5
185
100
AcDbEntity
8
0
100
AcDbCircle
10
-52.110160397858685
20
8.0923678641393355
30
3.8316754883881717e-46
40
0.56249999999520983
100
AcDbArc
50
59.999972033102701
51
239.99999999989262
0
ARC
5
186
100
AcDbEntity
8
0
100
AcDbCircle
10
-46.891410397857342
20
17.131508016143972
30
-2.299005293032903e-45
40
9.8750000000094786
100
AcDbArc
50
-119.99999840694241
51
119.99999666784132
0
ARC
5
187
100
AcDbEntity
8
0
100
AcDbCircle
10
-50.547660397857143
20
23.464318781317786
30
0
40
2.5625000000097211
100
AcDbArc
50
119.9999871590033
51
299.99998715900591
0
ARC
5
188
100
AcDbEntity
8
0
100
AcDbCircle
10
-46.891410397857342
20
17.131508016143972
30
-2.299005293032903e-45
40
4.7499999999904325
100
AcDbArc
50
-167.66217646428393
51
120.00000692737569
0
ARC
5
189
100
AcDbEntity
8
0
100
AcDbCircle
10
-54.03502642896828
20
15.569008016146173
30
0
40
2.5625000000054476
100
AcDbArc
50
12.337803767374135
51
90.000180764321726
0
LINE
5
190
100
AcDbEntity
8
0
100
AcDbLine
10
-54.035034513483026
20
18.131508016138941
30
-1.9747749685486345e-31
11
-56.317021900328683
21
18.131508016124759
31
2.2502132947034372e-31
0
ARC
5
191
100
AcDbEntity
8
0
100
AcDbCircle
10
-56.317024374891709
20
18.694008016125398
30
0
40
0.56250000000608102
100
AcDbArc
50
192.33787505997643
51
270.00025205691998
0
ARC
5
192
100
AcDbEntity
8
0
100
AcDbCircle
10
-63.460640406002767
20
17.131508016127533
30
-1.0947644252537633e-46
40
6.7499999999901528
100
AcDbArc
50
12.337811737379708
51
299.99999512904208
0
ARC
5
193
100
AcDbEntity
8
0
100
AcDbCircle
10
-59.804390406002824
20
10.798697250953783
30
0
40
0.56250000001010647
100
AcDbArc
50
-59.999941548511771
51
120.0000584514884
0
ARC
5
194
100
AcDbEntity
8
0
100
AcDbCircle
10
-63.460640406002767
20
17.131508016127533
30
-1.0947644252537633e-46
40
7.8750000000099361
100
AcDbArc
50
60.000009100319573
51
300.0000041751058
0
ARC
5
195
100
AcDbEntity
8
0
100
AcDbCircle
10
-58.241890406001289
20
26.170648168132232
30
-5.7475132325822575e-46
40
2.5624999999952109
100
AcDbArc
50
-120.0000279668127
51
60.000000026028175
0
ARC
5
196
100
AcDbEntity
8
0
100
AcDbCircle
10
-63.460640406002767
20
17.131508016127533
30
-1.0947644252537633e-46
40
12.999999999999957
100
AcDbArc
50
59.999999999999808
51
173.38441383822919
0
ARC
5
197
100
AcDbEntity
8
0
100
AcDbCircle
10
-76.932833991311455
20
18.694008016128873
30
0
40
0.5625000000013558
100
AcDbArc
50
270.00000000000142
51
353.38441383823124
0
LINE
5
198
100
AcDbEntity
8
0
100
AcDbLine
10
-76.932833991311441
20
18.131508016127519
30
-1.3250398017297561e-31
11
-77.852214111558595
21
18.131508016127526
31
0
0
ENDSEC
0
SECTION
2
OBJECTS
0
DICTIONARY
5
C
100
AcDbDictionary
3
ACAD_GROUP
350
D
3
ACAD_MLINESTYLE
350
17
0
DICTIONARY
5
D
100
AcDbDictionary
0
DICTIONARY
5
1A
330
C
100
AcDbDictionary
0
DICTIONARY
5
17
100
AcDbDictionary
0
ENDSEC
0
EOF
