0
SECTION
2
HEADER
9
$INSUNITS
70
4
9
$ACADVER
1
AC1014
9
$HANDSEED
5
FFFF
0
ENDSEC
0
SECTION
2
TABLES
0
TABLE
2
VPORT
5
8
100
AcDbSymbolTable
0
ENDTAB
0
TABLE
2
LTYPE
5
5
100
AcDbSymbolTable
0
LTYPE
5
14
100
AcDbSymbolTableRecord
100
AcDbLinetypeTableRecord
2
BYBLOCK
70
0
0
LTYPE
5
15
100
AcDbSymbolTableRecord
100
AcDbLinetypeTableRecord
2
BYLAYER
70
0
0
ENDTAB
0
TABLE
2
LAYER
5
2
100
AcDbSymbolTable
70
2
0
LAYER
5
50
100
AcDbSymbolTableRecord
100
AcDbLayerTableRecord
2
0
70
0
6
CONTINUOUS
0
ENDTAB
0
TABLE
2
STYLE
5
3
100
AcDbSymbolTable
70
1
0
STYLE
5
11
100
AcDbSymbolTableRecord
100
AcDbTextStyleTableRecord
2
STANDARD
70
0
0
ENDTAB
0
TABLE
2
VIEW
5
6
100
AcDbSymbolTable
70
0
0
ENDTAB
0
TABLE
2
UCS
5
7
100
AcDbSymbolTable
70
0
0
ENDTAB
0
TABLE
2
APPID
5
9
100
AcDbSymbolTable
70
2
0
APPID
5
12
100
AcDbSymbolTableRecord
100
AcDbRegAppTableRecord
2
ACAD
70
0
0
ENDTAB
0
TABLE
2
DIMSTYLE
5
A
100
AcDbSymbolTable
70
1
0
ENDTAB
0
TABLE
2
BLOCK_RECORD
5
1
100
AcDbSymbolTable
70
1
0
BLOCK_RECORD
5
1F
100
AcDbSymbolTableRecord
100
AcDbBlockTableRecord
2
*MODEL_SPACE
0
BLOCK_RECORD
5
1B
100
AcDbSymbolTableRecord
100
AcDbBlockTableRecord
2
*PAPER_SPACE
0
ENDTAB
0
ENDSEC
0
SECTION
2
BLOCKS
0
BLOCK
5
20
100
AcDbEntity
100
AcDbBlockBegin
2
*MODEL_SPACE
0
ENDBLK
5
21
100
AcDbEntity
100
AcDbBlockEnd
0
BLOCK
5
1C
100
AcDbEntity
100
AcDbBlockBegin
2
*PAPER_SPACE
0
ENDBLK
5
1D
100
AcDbEntity
100
AcDbBlockEnd
0
ENDSEC
0
SECTION
2
ENTITIES
0
LINE
5
100
100
AcDbEntity
8
0
100
AcDbLine
10
-93.183969235178395
20
17.483537479631369
30
0
11
-109.66220376806417
21
16.093455289578024
31
-8.7581154020301067e-46
0
LINE
5
101
100
AcDbEntity
8
0
100
AcDbLine
10
-109.66220376806417
20
16.093455289578024
30
-8.7581154020301067e-46
11
-109.6622037680619
21
15.733537479547522
31
1.0731898200175058e-42
0
LINE
5
102
100
AcDbEntity
8
0
100
AcDbLine
10
-109.6622037680619
20
15.733537479547522
30
1.0731898200175058e-42
11
-90.742823647814305
21
15.733537479643694
31
8.8615758509281702e-30
0
ARC
5
103
100
AcDbEntity
8
0
100
AcDbCircle
10
-90.742823647826768
20
18.171037479645356
30
0
40
2.4375000000016644
100
AcDbArc
50
270.00000000029297
51
353.38441383851165
0
ARC
5
104
100
AcDbEntity
8
0
100
AcDbCircle
10
-77.270630062510378
20
16.608537479712197
30
-3.0653403907105373e-45
40
11.124999999999467
100
AcDbArc
50
60.00000000029177
51
173.38441383852077
0
ARC
5
105
100
AcDbEntity
8
0
100
AcDbCircle
10
-72.051880062557672
20
25.647677631736347
30
2.7369110631344083e-45
40
0.68750000000226186
100
AcDbArc
50
-120.00008988953294
51
60.000000000304823
0
ARC
5
106
100
AcDbEntity
8
0
100
AcDbCircle
10
-77.270630062510378
20
16.608537479712197
30
-3.0653403907105373e-45
40
9.7499999999958433
100
AcDbArc
50
60.000006338675917
51
299.99999051308515
0
ARC
5
107
100
AcDbEntity
8
0
100
AcDbCircle
10
-73.614380062479171
20
10.275726714558751
30
0
40
2.4374999999981548
100
AcDbArc
50
-60.000037948532707
51
119.99996205146638
0
ARC
5
108
100
AcDbEntity
8
0
100
AcDbCircle
10
-77.270630062510378
20
16.608537479712197
30
-3.0653403907105373e-45
40
4.8750000000007043
100
AcDbArc
50
12.33783558305945
51
300.00001897470355
0
ARC
5
109
100
AcDbEntity
8
0
100
AcDbCircle
10
-70.127014031406148
20
18.171037479747731
30
0
40
2.437499999997383
100
AcDbArc
50
192.33777865982648
51
269.99970822708133
0
LINE
5
110
100
AcDbEntity
8
0
100
AcDbLine
10
-70.127026444126528
20
15.733537479781862
30
0
11
-67.845014654258918
21
15.733537479777704
31
1.0688627449787469e-30
0
ARC
5
111
100
AcDbEntity
8
0
100
AcDbCircle
10
-67.84501608546897
20
15.046037479777389
30
0
40
0.68750000000180223
100
AcDbArc
50
12.337951156678765
51
89.999880723931355
0
ARC
5
112
100
AcDbEntity
8
0
100
AcDbCircle
10
-60.701400054364868
20
16.608537479812849
30
2.1895288505075267e-46
40
6.6249999999974376
100
AcDbArc
50
-167.66219735388339
51
119.99998603776069
0
ARC
5
113
100
AcDbEntity
8
0
100
AcDbCircle
10
-64.357650054395961
20
22.94134824496637
30
0
40
0.68750000000253242
100
AcDbArc
50
120.00013454830042
51
300.00013454830037
0
ARC
5
114
100
AcDbEntity
8
0
100
AcDbCircle
10
-60.701400054364868
20
16.608537479812849
30
2.1895288505075267e-46
40
7.9999999999987068
100
AcDbArc
50
-119.99997261139774
51
120.00001156300972
0
ARC
5
115
100
AcDbEntity
8
0
100
AcDbCircle
10
-65.920150054317446
20
7.5693973277887716
30
5.4738221262688167e-46
40
2.4375000000022737
100
AcDbArc
50
59.999910110450173
51
239.99999999623336
0
ARC
5
116
100
AcDbEntity
8
0
100
AcDbCircle
10
-60.701400054364868
20
16.608537479812849
30
2.1895288505075267e-46
40
12.874999999999337
100
AcDbArc
50
239.99999999952306
51
353.38441383851966
0
ARC
5
117
100
AcDbEntity
8
0
100
AcDbCircle
10
-47.22920646904835
20
15.046037479879764
30
0
40
0.68750000000165512
100
AcDbArc
50
90.000000000297263
51
173.384413838516
0
LINE
5
118
100
AcDbEntity
8
0
100
AcDbLine
10
-47.229206469051917
20
15.733537479881418
30
-1.6716195805829228e-42
11
-33.00000015734053
21
15.73353747995375
31
6.6647633394072446e-30
0
ARC
5
119
100
AcDbEntity
8
0
100
AcDbCircle
10
-33.000000157332906
20
14.233537479953743
30
0
40
1.500000000000008
100
AcDbArc
50
0
51
90.000000000291223
0
LINE
5
120
100
AcDbEntity
8
0
100
AcDbLine
10
-31.500000157332902
20
14.233537479953739
30
-6.1629758220377808e-33
11
-31.500000157332899
21
12.500000139107858
31
-1.4585192057487051e-61
0
LINE
5
121
100
AcDbEntity
8
0
100
AcDbLine
10
-31.500000157332899
20
12.500000139107858
30
-1.4585192057487051e-61
11
-28.500000157334043
21
12.500000139107858
31
0
0
ARC
5
122
100
AcDbEntity
8
0
100
AcDbCircle
10
-24.36609666756608
20
12.500000139107858
30
0
40
4.1339034897679729
100
AcDbArc
50
125.66525080377502
51
180
0
ARC
5
123
100
AcDbEntity
8
0
100
AcDbCircle
10
-26.77636324884471
20
19.066870813355088
30
0
40
3.2083333333695774
100
AcDbArc
50
-89.9999999993247
51
45.000000000149846
0
ARC
5
124
100
AcDbEntity
8
0
100
AcDbCircle
10
-14.284143447876032
20
31.559090614318986
30
7.7787690973264271e-61
40
14.458333333302599
100
AcDbArc
50
134.99999999995342
51
224.99999999995336
0
ARC
5
125
100
AcDbEntity
8
0
100
AcDbCircle
10
-23.476531603299172
20
40.751478769743414
30
-6.6848796930148983e-62
40
1.4583333333044857
100
AcDbArc
50
-45.000000000425686
51
134.99999999957393
0
ARC
5
126
100
AcDbEntity
8
0
100
AcDbCircle
10
-14.284143447876032
20
31.559090614318986
30
7.7787690973264271e-61
40
11.541666666693629
100
AcDbArc
50
135.00000000004928
51
225.00000000004914
0
ARC
5
127
100
AcDbEntity
8
0
100
AcDbCircle
10
-20.176699957748117
20
25.6665341044279
30
0
40
3.2083333333692297
100
AcDbArc
50
-135.00000000006318
51
45.000000853710546
0
ARC
5
128
100
AcDbEntity
8
0
100
AcDbCircle
10
-14.284143447876032
20
31.559090614318986
30
7.7787690973264271e-61
40
5.124999999955179
100
AcDbArc
50
-45.000000534286521
51
224.9999994657135
0
ARC
5
129
100
AcDbEntity
8
0
100
AcDbCircle
10
-8.3915869379874071
20
25.666534104430308
30
0
40
3.2083333333792234
100
AcDbArc
50
135.00000085347003
51
315.00000085347068
0
ARC
5
130
100
AcDbEntity
8
0
100
AcDbCircle
10
-14.284143447876032
20
31.559090614318986
30
7.7787690973264271e-61
40
11.541666666713631
100
AcDbArc
50
-44.999999762753824
51
45.000000237246191
0
ARC
5
131
100
AcDbEntity
8
0
100
AcDbCircle
10
-5.0917552924491005
20
40.751478769739613
30
1.0691058840368783e-47
40
1.4583333332844872
100
AcDbArc
50
44.999998975964161
51
224.99999897596416
0
ARC
5
132
100
AcDbEntity
8
0
100
AcDbCircle
10
-14.284143447876032
20
31.559090614318986
30
7.7787690973264271e-61
40
14.458333333282607
100
AcDbArc
50
-45.000000103306654
51
44.999999896693417
0
ARC
5
133
100
AcDbEntity
8
0
100
AcDbCircle
10
-1.7919236469121413
20
19.066870813354996
30
0
40
3.2083333333863235
100
AcDbArc
50
135.00000046554945
51
255.13261682353809
0
ARC
5
134
100
AcDbEntity
8
0
100
AcDbCircle
10
-3.0000001573327828
20
14.516161646285887
30
0
40
1.5000000000000078
100
AcDbArc
50
0
51
75.132616823537958
0
LINE
5
135
100
AcDbEntity
8
0
100
AcDbLine
10
-1.500000157332775
20
14.516161646285891
30
2.4659991641805797e-76
11
-1.5000001573327748
21
14.500000139107868
31
0
0
LINE
5
136
100
AcDbEntity
8
0
100
AcDbLine
10
-1.5000001573327748
20
14.500000139107868
30
0
11
1.4999998426672385
21
14.500000139107872
31
0
0
LINE
5
137
100
AcDbEntity
8
0
100
AcDbLine
10
1.4999998426672385
20
14.500000139107872
30
0
11
1.5000000261060236
21
15.858537479970558
31
8.5920186525411212e-38
0
LINE
5
138
100
AcDbEntity
8
0
100
AcDbLine
10
1.5000000261060236
20
15.858537479970558
30
8.5920186525411212e-38
11
1.4999999739651446
21
17.608537479969492
31
0
0
LINE
5
139
100
AcDbEntity
8
0
100
AcDbLine
10
1.4999999739651446
20
17.608537479969492
30
0
11
1.4999998426672423
21
19.695114024784669
31
-6.1498123677052432e-38
0
LINE
5
140
100
AcDbEntity
8
0
100
AcDbLine
10
1.4999998426672423
20
19.695114024784669
30
-6.1498123677052432e-38
11
-1.5000001573327744
21
19.695114024784669
31
0
0
LINE
5
141
100
AcDbEntity
8
0
100
AcDbLine
10
-1.5000001573327744
20
19.695114024784669
30
0
11
-1.5000001573327748
21
18.49766919537721
31
-3.2816682129345864e-61
0
ARC
5
142
100
AcDbEntity
8
0
100
AcDbCircle
10
-3.0000001573327859
20
18.49766919537721
30
5.5055574538727084e-76
40
1.5000000000000142
100
AcDbArc
50
323.64728114123852
51
360
0
ARC
5
143
100
AcDbEntity
8
0
100
AcDbCircle
10
-1.7919236469121413
20
19.066870813354996
30
0
40
1.4583333333863182
100
AcDbArc
50
134.99999897566724
51
269.99993394258632
0
ARC
5
144
100
AcDbEntity
8
0
100
AcDbCircle
10
-14.284143447876032
20
31.559090614318986
30
7.7787690973264271e-61
40
16.208333333282614
100
AcDbArc
50
-44.999999907836632
51
45.000000092163397
0
ARC
5
145
100
AcDbEntity
8
0
100
AcDbCircle
10
-5.0917552924491005
20
40.751478769739613
30
1.0691058840368783e-47
40
3.2083333332844957
100
AcDbArc
50
45.000000465684337
51
225.00000046568431
0
ARC
5
146
100
AcDbEntity
8
0
100
AcDbCircle
10
-14.284143447876032
20
31.559090614318986
30
7.7787690973264271e-61
40
9.7916666667136241
100
AcDbArc
50
-44.999999872864983
51
45.000000127135074
0
ARC
5
147
100
AcDbEntity
8
0
100
AcDbCircle
10
-8.3915869379874071
20
25.666534104430308
30
0
40
1.458333333379223
100
AcDbArc
50
135.00000085362228
51
315.00000085362205
0
ARC
5
148
100
AcDbEntity
8
0
100
AcDbCircle
10
-14.284143447876032
20
31.559090614318986
30
7.7787690973264271e-61
40
6.8749999999551781
100
AcDbArc
50
-45.000000181071727
51
224.99999981892861
0
ARC
5
149
100
AcDbEntity
8
0
100
AcDbCircle
10
-20.176699957748117
20
25.6665341044279
30
0
40
1.458333333369227
100
AcDbArc
50
-134.99999999962378
51
45.000000854150116
0
ARC
5
150
100
AcDbEntity
8
0
100
AcDbCircle
10
-14.284143447876032
20
31.559090614318986
30
7.7787690973264271e-61
40
9.7916666666936223
100
AcDbArc
50
135.00000000013475
51
225.00000000013466
0
ARC
5
151
100
AcDbEntity
8
0
100
AcDbCircle
10
-23.476531603299172
20
40.751478769743414
30
-6.6848796930148983e-62
40
3.2083333333044917
100
AcDbArc
50
-45.000000000427512
51
135.00000120699013
0
ARC
5
152
100
AcDbEntity
8
0
100
AcDbCircle
10
-14.284143447876032
20
31.559090614318986
30
7.7787690973264271e-61
40
16.208333333302608
100
AcDbArc
50
134.99999999991212
51
224.99999999991203
0
ARC
5
153
100
AcDbEntity
8
0
100
AcDbCircle
10
-26.77636324884471
20
19.066870813355088
30
0
40
1.4583333333696369
100
AcDbArc
50
-89.999999998627786
51
45.000000000844565
0
LINE
5
154
100
AcDbEntity
8
0
100
AcDbLine
10
-26.776363248809783
20
17.608537479985451
30
-1.858607229700795e-57
11
-31.500001548150614
21
17.608537479961438
31
4.3790577010150533e-46
0
ARC
5
155
100
AcDbEntity
8
0
100
AcDbCircle
10
-47.22920646904835
20
15.046037479879764
30
0
40
2.43750000000166
100
AcDbArc
50
90.000000000292957
51
173.38441383851168
0
ARC
5
156
100
AcDbEntity
8
0
100
AcDbCircle
10
-60.701400054364868
20
16.608537479812849
30
2.1895288505075267e-46
40
11.12499999999933
100
AcDbArc
50
240.0000000002922
51
353.3844138385212
0
ARC
5
157
100
AcDbEntity
8
0
100
AcDbCircle
10
-65.920150054317446
20
7.5693973277887716
30
5.4738221262688167e-46
40
0.68750000000225353
100
AcDbArc
50
59.999910110466949
51
240.00000000030559
0
ARC
5
158
100
AcDbEntity
8
0
100
AcDbCircle
10
-60.701400054364868
20
16.608537479812849
30
2.1895288505075267e-46
40
9.749999999995719
100
AcDbArc
50
-119.99999366132364
51
119.99999051308428
0
ARC
5
159
100
AcDbEntity
8
0
100
AcDbCircle
10
-64.357650054395961
20
22.94134824496637
30
0
40
2.4374999999981517
100
AcDbArc
50
119.99996205146694
51
299.99996205146653
0
ARC
5
160
100
AcDbEntity
8
0
100
AcDbCircle
10
-60.701400054364868
20
16.608537479812849
30
2.1895288505075267e-46
40
4.8750000000005578
100
AcDbArc
50
-167.6621644169411
51
120.00001897470186
0
ARC
5
161
100
AcDbEntity
8
0
100
AcDbCircle
10
-67.84501608546897
20
15.046037479777389
30
0
40
2.4374999999973919
100
AcDbArc
50
12.337778659826522
51
89.999708227081328
0
LINE
5
162
100
AcDbEntity
8
0
100
AcDbLine
10
-67.845003672748618
20
17.483537479743255
30
0
11
-70.127015462616242
21
17.483537479747415
31
-1.0688627449787553e-30
0
ARC
5
163
100
AcDbEntity
8
0
100
AcDbCircle
10
-70.127014031406148
20
18.171037479747731
30
0
40
0.68750000000180223
100
AcDbArc
50
192.3379511566786
51
269.99988072393131
0
ARC
5
164
100
AcDbEntity
8
0
100
AcDbCircle
10
-77.270630062510378
20
16.608537479712197
30
-3.0653403907105373e-45
40
6.6249999999975753
100
AcDbArc
50
12.337802646117035
51
299.99998603776208
0
ARC
5
165
100
AcDbEntity
8
0
100
AcDbCircle
10
-73.614380062479171
20
10.275726714558751
30
0
40
0.68750000000253242
100
AcDbArc
50
-59.999865451699762
51
120.00013454829893
0
ARC
5
166
100
AcDbEntity
8
0
100
AcDbCircle
10
-77.270630062510378
20
16.608537479712197
30
-3.0653403907105373e-45
40
7.99999999999884
100
AcDbArc
50
60.000027388601666
51
300.00001156301067
0
ARC
5
167
100
AcDbEntity
8
0
100
AcDbCircle
10
-72.051880062557672
20
25.647677631736347
30
2.7369110631344083e-45
40
2.437500000002272
100
AcDbArc
50
-120.00008988954957
51
59.999999996233697
0
ARC
5
168
100
AcDbEntity
8
0
100
AcDbCircle
10
-77.270630062510378
20
16.608537479712197
30
-3.0653403907105373e-45
40
12.874999999999456
100
AcDbArc
50
59.999999999522792
51
173.38441383851932
0
ARC
5
169
100
AcDbEntity
8
0
100
AcDbCircle
10
-90.742823647826768
20
18.171037479645356
30
0
40
0.68750000000165512
100
AcDbArc
50
270.00000000029729
51
353.3844138385154
0
LINE
5
170
100
AcDbEntity
8
0
100
AcDbLine
10
-90.742823647823201
20
17.483537479643701
30
1.6732806340399647e-42
11
-93.183969235178395
21
17.483537479631369
31
0
0
LINE
5
171
100
AcDbEntity
8
0
100
AcDbLine
10
-31.500001548150614
20
17.608537479961438
30
4.3790577010150533e-46
11
-31.500001548150401
21
17.483537479961381
31
0
0
LINE
5
172
100
AcDbEntity
8
0
100
AcDbLine
10
-31.500001548150401
20
17.483537479961381
30
0
11
-47.229206469060813
21
17.483537479881424
31
-7.3673419316877761e-30
0
LWPOLYLINE
5
173
100
AcDbEntity
8
0
100
AcDbPolyline
90
4
70
1
43
0.0
10
-28.499826348804334
20
15.733537479976626
10
-28.794249288091038
20
15.733537479975194
10
-28.794249288091031
20
15.608537479976691
10
-28.499826348803808
20
15.608537479976691
0
ENDSEC
0
SECTION
2
OBJECTS
0
DICTIONARY
5
C
100
AcDbDictionary
3
ACAD_GROUP
350
D
3
ACAD_MLINESTYLE
350
17
0
DICTIONARY
5
D
100
AcDbDictionary
0
DICTIONARY
5
1A
330
C
100
AcDbDictionary
0
DICTIONARY
5
17
100
AcDbDictionary
0
ENDSEC
0
EOF
